<mxfile host="65bd71144e">
    <diagram name="Página-1" id="P667iSNVdhn7sIf4JZte">
        <mxGraphModel dx="826" dy="1776" grid="1" gridSize="10" guides="1" tooltips="1" connect="1" arrows="1" fold="1" page="1" pageScale="1" pageWidth="827" pageHeight="1169" math="0" shadow="0">
            <root>
                <mxCell id="0"/>
                <mxCell id="1" parent="0"/>
                <mxCell id="03oK-F6djXG63VOhtghm-16" value="" style="ellipse;whiteSpace=wrap;html=1;aspect=fixed;" parent="1" vertex="1">
                    <mxGeometry x="520" y="415" width="90" height="90" as="geometry"/>
                </mxCell>
                <mxCell id="03oK-F6djXG63VOhtghm-14" value="" style="ellipse;whiteSpace=wrap;html=1;aspect=fixed;" parent="1" vertex="1">
                    <mxGeometry x="740" y="415" width="90" height="90" as="geometry"/>
                </mxCell>
                <mxCell id="03oK-F6djXG63VOhtghm-15" value="" style="ellipse;whiteSpace=wrap;html=1;aspect=fixed;" parent="1" vertex="1">
                    <mxGeometry x="400" y="205" width="90" height="90" as="geometry"/>
                </mxCell>
                <mxCell id="03oK-F6djXG63VOhtghm-13" value="" style="ellipse;whiteSpace=wrap;html=1;aspect=fixed;" parent="1" vertex="1">
                    <mxGeometry x="180" y="-20" width="90" height="90" as="geometry"/>
                </mxCell>
                <mxCell id="03oK-F6djXG63VOhtghm-1" value="CREATED" style="ellipse;whiteSpace=wrap;html=1;aspect=fixed;" parent="1" vertex="1">
                    <mxGeometry x="180" y="240" width="80" height="80" as="geometry"/>
                </mxCell>
                <mxCell id="03oK-F6djXG63VOhtghm-2" value="" style="triangle;whiteSpace=wrap;html=1;" parent="1" vertex="1">
                    <mxGeometry x="140" y="250" width="40" height="60" as="geometry"/>
                </mxCell>
                <mxCell id="03oK-F6djXG63VOhtghm-3" value="PROCESSING" style="ellipse;whiteSpace=wrap;html=1;aspect=fixed;" parent="1" vertex="1">
                    <mxGeometry x="374" y="70" width="80" height="80" as="geometry"/>
                </mxCell>
                <mxCell id="03oK-F6djXG63VOhtghm-4" value="FOUND" style="ellipse;whiteSpace=wrap;html=1;aspect=fixed;" parent="1" vertex="1">
                    <mxGeometry x="620" y="65" width="80" height="80" as="geometry"/>
                </mxCell>
                <mxCell id="03oK-F6djXG63VOhtghm-5" value="NOT FOUND" style="ellipse;whiteSpace=wrap;html=1;aspect=fixed;" parent="1" vertex="1">
                    <mxGeometry x="185" y="-15" width="80" height="80" as="geometry"/>
                </mxCell>
                <mxCell id="03oK-F6djXG63VOhtghm-6" value="ON DELIVER" style="ellipse;whiteSpace=wrap;html=1;aspect=fixed;" parent="1" vertex="1">
                    <mxGeometry x="620" y="265" width="80" height="80" as="geometry"/>
                </mxCell>
                <mxCell id="03oK-F6djXG63VOhtghm-7" value="LOST" style="ellipse;whiteSpace=wrap;html=1;aspect=fixed;" parent="1" vertex="1">
                    <mxGeometry x="525" y="420" width="80" height="80" as="geometry"/>
                </mxCell>
                <mxCell id="03oK-F6djXG63VOhtghm-8" value="DELIVERED" style="ellipse;whiteSpace=wrap;html=1;aspect=fixed;" parent="1" vertex="1">
                    <mxGeometry x="745" y="420" width="80" height="80" as="geometry"/>
                </mxCell>
                <mxCell id="03oK-F6djXG63VOhtghm-9" value="CANCELLED" style="ellipse;whiteSpace=wrap;html=1;aspect=fixed;" parent="1" vertex="1">
                    <mxGeometry x="405" y="210" width="80" height="80" as="geometry"/>
                </mxCell>
                <mxCell id="03oK-F6djXG63VOhtghm-11" value="El controlador envia peticion de búsqueda" style="endArrow=classic;html=1;rounded=0;entryX=0;entryY=0.5;entryDx=0;entryDy=0;exitX=0.5;exitY=0;exitDx=0;exitDy=0;" parent="1" source="03oK-F6djXG63VOhtghm-1" target="03oK-F6djXG63VOhtghm-3" edge="1">
                    <mxGeometry x="-0.2368" y="14" width="50" height="50" relative="1" as="geometry">
                        <mxPoint x="230" y="280" as="sourcePoint"/>
                        <mxPoint x="280" y="230" as="targetPoint"/>
                        <mxPoint x="1" as="offset"/>
                    </mxGeometry>
                </mxCell>
                <mxCell id="03oK-F6djXG63VOhtghm-17" value="El robot lo encuentra" style="endArrow=classic;html=1;rounded=0;entryX=0;entryY=0.5;entryDx=0;entryDy=0;exitX=1;exitY=0.5;exitDx=0;exitDy=0;" parent="1" source="03oK-F6djXG63VOhtghm-3" target="03oK-F6djXG63VOhtghm-4" edge="1">
                    <mxGeometry width="50" height="50" relative="1" as="geometry">
                        <mxPoint x="620" y="340" as="sourcePoint"/>
                        <mxPoint x="670" y="290" as="targetPoint"/>
                    </mxGeometry>
                </mxCell>
                <mxCell id="03oK-F6djXG63VOhtghm-18" value="El robot no lo encuentra" style="endArrow=classic;html=1;rounded=0;entryX=1;entryY=0.5;entryDx=0;entryDy=0;exitX=0.5;exitY=0;exitDx=0;exitDy=0;" parent="1" source="03oK-F6djXG63VOhtghm-3" target="03oK-F6djXG63VOhtghm-13" edge="1">
                    <mxGeometry width="50" height="50" relative="1" as="geometry">
                        <mxPoint x="430" y="50" as="sourcePoint"/>
                        <mxPoint x="480" as="targetPoint"/>
                    </mxGeometry>
                </mxCell>
                <mxCell id="03oK-F6djXG63VOhtghm-19" value="El controlador envía la petición de entrega" style="endArrow=classic;html=1;rounded=0;entryX=0.5;entryY=0;entryDx=0;entryDy=0;exitX=0.5;exitY=1;exitDx=0;exitDy=0;" parent="1" source="03oK-F6djXG63VOhtghm-4" target="03oK-F6djXG63VOhtghm-6" edge="1">
                    <mxGeometry width="50" height="50" relative="1" as="geometry">
                        <mxPoint x="780" y="170" as="sourcePoint"/>
                        <mxPoint x="830" y="120" as="targetPoint"/>
                    </mxGeometry>
                </mxCell>
                <mxCell id="03oK-F6djXG63VOhtghm-20" value="No pudo entregar el pedido" style="endArrow=classic;html=1;rounded=0;exitX=0;exitY=1;exitDx=0;exitDy=0;entryX=0.5;entryY=0;entryDx=0;entryDy=0;" parent="1" source="03oK-F6djXG63VOhtghm-6" target="03oK-F6djXG63VOhtghm-7" edge="1">
                    <mxGeometry width="50" height="50" relative="1" as="geometry">
                        <mxPoint x="490" y="365" as="sourcePoint"/>
                        <mxPoint x="575" y="425" as="targetPoint"/>
                    </mxGeometry>
                </mxCell>
                <mxCell id="03oK-F6djXG63VOhtghm-21" value="Se entregó el pedido" style="endArrow=classic;html=1;rounded=0;entryX=0.5;entryY=0;entryDx=0;entryDy=0;" parent="1" source="03oK-F6djXG63VOhtghm-6" target="03oK-F6djXG63VOhtghm-8" edge="1">
                    <mxGeometry width="50" height="50" relative="1" as="geometry">
                        <mxPoint x="710" y="605" as="sourcePoint"/>
                        <mxPoint x="760" y="555" as="targetPoint"/>
                    </mxGeometry>
                </mxCell>
                <mxCell id="03oK-F6djXG63VOhtghm-22" value="Cliente cancela" style="endArrow=classic;html=1;rounded=0;entryX=1;entryY=0.5;entryDx=0;entryDy=0;" parent="1" source="03oK-F6djXG63VOhtghm-6" target="03oK-F6djXG63VOhtghm-15" edge="1">
                    <mxGeometry width="50" height="50" relative="1" as="geometry">
                        <mxPoint x="540" y="260" as="sourcePoint"/>
                        <mxPoint x="590" y="210" as="targetPoint"/>
                    </mxGeometry>
                </mxCell>
                <mxCell id="03oK-F6djXG63VOhtghm-23" value="Cliente cancela" style="endArrow=classic;html=1;rounded=0;entryX=0.5;entryY=0;entryDx=0;entryDy=0;exitX=0.5;exitY=1;exitDx=0;exitDy=0;" parent="1" source="03oK-F6djXG63VOhtghm-3" target="03oK-F6djXG63VOhtghm-9" edge="1">
                    <mxGeometry width="50" height="50" relative="1" as="geometry">
                        <mxPoint x="480" y="410" as="sourcePoint"/>
                        <mxPoint x="530" y="360" as="targetPoint"/>
                    </mxGeometry>
                </mxCell>
                <mxCell id="03oK-F6djXG63VOhtghm-24" value="Cliente cancela" style="endArrow=classic;html=1;rounded=0;entryX=0.786;entryY=0.031;entryDx=0;entryDy=0;entryPerimeter=0;exitX=0;exitY=1;exitDx=0;exitDy=0;" parent="1" source="03oK-F6djXG63VOhtghm-4" target="03oK-F6djXG63VOhtghm-9" edge="1">
                    <mxGeometry width="50" height="50" relative="1" as="geometry">
                        <mxPoint x="510" y="200" as="sourcePoint"/>
                        <mxPoint x="560" y="150" as="targetPoint"/>
                    </mxGeometry>
                </mxCell>
                <mxCell id="03oK-F6djXG63VOhtghm-25" value="Cliente hace pedido" style="text;html=1;align=center;verticalAlign=middle;resizable=0;points=[];autosize=1;strokeColor=none;fillColor=none;" parent="1" vertex="1">
                    <mxGeometry x="10" y="265" width="130" height="30" as="geometry"/>
                </mxCell>
                <mxCell id="03oK-F6djXG63VOhtghm-26" value="Cliente cancela" style="endArrow=classic;html=1;rounded=0;entryX=0;entryY=0.5;entryDx=0;entryDy=0;exitX=1;exitY=0.5;exitDx=0;exitDy=0;" parent="1" source="03oK-F6djXG63VOhtghm-1" target="03oK-F6djXG63VOhtghm-9" edge="1">
                    <mxGeometry width="50" height="50" relative="1" as="geometry">
                        <mxPoint x="330" y="390" as="sourcePoint"/>
                        <mxPoint x="380" y="340" as="targetPoint"/>
                    </mxGeometry>
                </mxCell>
            </root>
        </mxGraphModel>
    </diagram>
</mxfile>